<?xml version="1.0" encoding="UTF-8"?>
<svg width="151px" height="89px" viewBox="0 0 151 89" version="1.1" xmlns="http://www.w3.org/2000/svg" xmlns:xlink="http://www.w3.org/1999/xlink">
    <!-- Generator: Sketch 42 (36781) - http://www.bohemiancoding.com/sketch -->
    <title>Shape</title>
    <desc>Created with Sketch.</desc>
    <defs></defs>
    <g id="Page-1" stroke="none" stroke-width="1" fill="none" fill-rule="evenodd">
        <g id="arenamark" transform="translate(-1.000000, 0.000000)" fill-rule="nonzero" fill="#000">
            <path d="M149.931,62.356 L129.083,45.972 C127.807,44.972 127.807,43.33 129.083,42.327 L149.931,25.946 C151.21,24.945 151.743,23.252 151.118,22.186 C150.492,21.125 148.744,20.746 147.238,21.348 L122.449,31.221 C120.941,31.824 119.521,30.999 119.295,29.39 L115.568,2.923 C115.34,1.317 114.132,0 112.879,0 C111.631,0 110.422,1.317 110.198,2.925 L106.468,29.392 C106.24,31.001 104.822,31.826 103.313,31.223 L78.933,21.512 C77.421,20.91 74.958,20.91 73.45,21.512 L49.067,31.223 C47.559,31.826 46.139,31.001 45.913,29.392 L42.186,2.925 C41.957,1.317 40.748,0 39.499,0 C38.248,0 37.037,1.317 36.812,2.925 L33.083,29.392 C32.856,31.001 31.437,31.826 29.929,31.223 L5.14,21.35 C3.633,20.747 1.888,21.127 1.262,22.188 C0.637,23.254 1.17,24.947 2.446,25.948 L23.295,42.329 C24.573,43.331 24.573,44.973 23.295,45.974 L2.445,62.356 C1.169,63.358 0.636,65.152 1.261,66.341 C1.887,67.529 3.632,68.008 5.137,67.404 L29.704,57.538 C31.213,56.935 32.618,57.756 32.829,59.366 L36.376,86.062 C36.59,87.669 37.994,88.985 39.497,88.985 C40.996,88.985 42.401,87.67 42.616,86.062 L46.166,59.366 C46.377,57.756 47.787,56.935 49.288,57.538 L73.452,67.236 C74.957,67.842 77.42,67.842 78.928,67.236 L103.088,57.538 C104.592,56.935 105.998,57.756 106.213,59.366 L109.763,86.062 C109.975,87.669 111.38,88.985 112.878,88.985 C114.38,88.985 115.785,87.67 115.999,86.062 L119.547,59.366 C119.764,57.756 121.167,56.935 122.672,57.538 L147.24,67.404 C148.742,68.008 150.49,67.529 151.116,66.341 C151.743,65.152 151.21,63.358 149.931,62.356 Z M96.888,46.181 L78.528,60.315 C77.243,61.305 75.135,61.305 73.854,60.315 L55.491,46.181 C54.206,45.189 54.196,43.559 55.471,42.555 L73.87,28.062 C75.144,27.057 77.233,27.057 78.508,28.062 L96.908,42.555 C98.185,43.559 98.175,45.189 96.888,46.181 Z" id="Shape"></path>
        </g>
    </g>
</svg>
